# xmcd
#
# Track frame offsets: 
#        150
#        16635
#        38529
#        54733
#        72715
#        88108
#        116991
#        137257
#        156193
#
# Disc length: 2287 seconds
#
# Revision: 0
# Processed by: cddbd v1.5.2PL0 Copyright (c) Steve Scherf et al.
# Submitted via: ExactAudioCopy v1.1
#
DISCID=7308ed09
DTITLE=夏韶聲 - 說不出的未來 (LPCD45II)
DYEAR=1988
DGENRE=Blues
TTITLE0=鬥爭邊界
TTITLE1=迷惘都市
TTITLE2=吸血婦人
TTITLE3=你是氫氣，我是氧
TTITLE4=Mr. Yes
TTITLE5=說不出的未來
TTITLE6=一瞬間的感覺
TTITLE7=這是愛
TTITLE8=My Friend
EXTD=
EXTT0=
EXTT1=
EXTT2=
EXTT3=
EXTT4=
EXTT5=
EXTT6=
EXTT7=
EXTT8=
PLAYORDER=
